<svg width="315" height="345" viewBox="0 0 315 345" fill="none" xmlns="http://www.w3.org/2000/svg">
<g clip-path="url(#clip0_117_354)">
<mask id="mask0_117_354" style="mask-type:alpha" maskUnits="userSpaceOnUse" x="1" y="30" width="314" height="315">
<path d="M157.936 344.032C244.52 344.032 314.711 273.842 314.711 187.258C314.711 100.674 244.52 30.4839 157.936 30.4839C71.3523 30.4839 1.16211 100.674 1.16211 187.258C1.16211 273.842 71.3523 344.032 157.936 344.032Z" fill="white"/>
</mask>
<g mask="url(#mask0_117_354)">
<path d="M157.936 344.032C244.52 344.032 314.711 273.842 314.711 187.258C314.711 100.674 244.52 30.4839 157.936 30.4839C71.3523 30.4839 1.16211 100.674 1.16211 187.258C1.16211 273.842 71.3523 344.032 157.936 344.032Z" fill="#0D698B"/>
<path d="M315.357 30.4839H1.16211V344.032H315.357V30.4839Z" fill="#0D698B"/>
</g>
<mask id="mask1_117_354" style="mask-type:alpha" maskUnits="userSpaceOnUse" x="-15" y="-22" width="346" height="367">
<path d="M-14.5156 187.258V-21.7742H330.388V187.258H314.71C314.71 273.842 244.52 344.032 157.936 344.032C71.352 344.032 1.1618 273.842 1.1618 187.258H-14.5156Z" fill="white"/>
</mask>
<g mask="url(#mask1_117_354)">
<mask id="mask2_117_354" style="mask-type:alpha" maskUnits="userSpaceOnUse" x="27" y="25" width="262" height="320">
<path d="M157.936 25.2581C198.342 25.2581 231.098 58.0135 231.098 98.4193L231.099 106.475C238.513 107.719 244.162 114.168 244.162 121.935V140.226C244.162 148.133 238.308 154.673 230.698 155.748C227.998 181.623 211.811 203.486 189.292 214.185L189.291 238.21H194.517C246.467 238.21 288.582 280.324 288.582 332.274V344.032H27.291V332.274C27.291 280.324 69.4052 238.21 121.356 238.21H126.581L126.582 214.185C104.062 203.487 87.8742 181.623 85.1736 155.748C77.5643 154.673 71.7104 148.133 71.7104 140.226V121.935C71.7104 114.167 77.3603 107.719 84.775 106.475L84.7749 98.4193C84.7749 58.0135 117.53 25.2581 157.936 25.2581Z" fill="white"/>
</mask>
<g mask="url(#mask2_117_354)">
<path d="M157.936 25.2581C198.342 25.2581 231.098 58.0135 231.098 98.4193L231.099 106.475C238.513 107.719 244.162 114.168 244.162 121.935V140.226C244.162 148.133 238.308 154.673 230.698 155.748C227.998 181.623 211.811 203.486 189.292 214.185L189.291 238.21H194.517C246.467 238.21 288.582 280.324 288.582 332.274V344.032H27.291V332.274C27.291 280.324 69.4052 238.21 121.356 238.21H126.581L126.582 214.185C104.062 203.487 87.8742 181.623 85.1736 155.748C77.5643 154.673 71.7104 148.133 71.7104 140.226V121.935C71.7104 114.167 77.3603 107.719 84.775 106.475L84.7749 98.4193C84.7749 58.0135 117.53 25.2581 157.936 25.2581Z" fill="#D0C6AC"/>
<path d="M331.525 25.2581H-14.5156V345.128H331.525V25.2581Z" fill="#FFDBB4"/>
<path fill-rule="evenodd" clip-rule="evenodd" d="M84.7744 148.065C84.7744 188.47 117.53 221.226 157.936 221.226C198.341 221.226 231.097 188.47 231.097 148.065V158.516C231.097 198.922 198.341 231.677 157.936 231.677C117.53 231.677 84.7744 198.922 84.7744 158.516V148.065Z" fill="black" fill-opacity="0.1"/>
</g>
<mask id="mask3_117_354" style="mask-type:alpha" maskUnits="userSpaceOnUse" x="27" y="217" width="262" height="128">
<path d="M189.293 217.399C212.94 220.045 231.098 227.319 231.098 246.149L231.089 245.583C264.873 259.853 288.582 293.294 288.582 332.273V344.032H27.291V332.273C27.291 293.294 50.9998 259.853 84.7834 245.583C85.1416 227.172 103.172 220.019 126.581 217.399L126.581 242.129C126.581 259.446 140.619 273.484 157.936 273.484C175.253 273.484 189.291 259.446 189.291 242.129L189.293 217.399Z" fill="white"/>
</mask>
<g mask="url(#mask3_117_354)">
<path d="M189.293 217.399C212.94 220.045 231.098 227.319 231.098 246.149L231.089 245.583C264.873 259.853 288.582 293.294 288.582 332.273V344.032H27.291V332.273C27.291 293.294 50.9998 259.853 84.7834 245.583C85.1416 227.172 103.172 220.019 126.581 217.399L126.581 242.129C126.581 259.446 140.619 273.484 157.936 273.484C175.253 273.484 189.291 259.446 189.291 242.129L189.293 217.399Z" fill="#B7C1DB"/>
<path d="M331.68 200.323H-14.5156V344.032H331.68V200.323Z" fill="#3F4146"/>
</g>
<path fill-rule="evenodd" clip-rule="evenodd" d="M142.259 148.064C142.259 153.837 149.278 158.516 157.936 158.516C166.595 158.516 173.614 153.837 173.614 148.064" fill="black" fill-opacity="0.16"/>
<path fill-rule="evenodd" clip-rule="evenodd" d="M105.887 125.133C108.299 120.17 113.731 116.71 120.046 116.71C126.338 116.71 131.753 120.145 134.178 125.08C134.899 126.546 133.874 127.746 132.84 126.857C129.637 124.104 125.09 122.385 120.046 122.385C115.159 122.385 110.739 123.998 107.556 126.602C106.392 127.554 105.181 126.584 105.887 125.133Z" fill="black" fill-opacity="0.71"/>
<path fill-rule="evenodd" clip-rule="evenodd" d="M181.661 125.133C184.074 120.17 189.506 116.71 195.82 116.71C202.112 116.71 207.528 120.145 209.953 125.08C210.673 126.546 209.648 127.746 208.614 126.857C205.412 124.104 200.864 122.385 195.82 122.385C190.933 122.385 186.513 123.998 183.33 126.602C182.167 127.554 180.956 126.584 181.661 125.133Z" fill="black" fill-opacity="0.71"/>
<path fill-rule="evenodd" clip-rule="evenodd" d="M119.458 93.3874C111.871 93.7379 99.6059 99.2506 99.9219 106.901C99.9324 107.151 100.3 107.261 100.48 107.069C104.079 103.203 129.634 99.2958 138.635 101.366C139.458 101.556 140.084 100.743 139.563 100.156C135.092 95.1286 126.254 93.0668 119.458 93.3874Z" fill="black" fill-opacity="0.71"/>
<path fill-rule="evenodd" clip-rule="evenodd" d="M197.721 93.3874C205.308 93.7379 217.573 99.2506 217.257 106.901C217.246 107.151 216.879 107.261 216.699 107.069C213.1 103.203 187.545 99.2958 178.544 101.366C177.72 101.556 177.094 100.743 177.616 100.156C182.087 95.1286 190.924 93.0668 197.721 93.3874Z" fill="black" fill-opacity="0.71"/>
<mask id="mask4_117_354" style="mask-type:alpha" maskUnits="userSpaceOnUse" x="-15" y="-22" width="346" height="367">
<path d="M330.388 -21.7742H-14.5156V344.032H330.388V-21.7742Z" fill="white"/>
</mask>
<g mask="url(#mask4_117_354)">
<mask id="mask5_117_354" style="mask-type:alpha" maskUnits="userSpaceOnUse" x="80" y="0" width="154" height="108">
<path d="M94.8847 30.3799C98.4902 26.6957 102.676 23.5686 106.748 20.4328C107.647 19.7415 108.56 19.0669 109.438 18.3494C109.638 18.1863 111.683 16.7214 111.928 16.1823C112.517 14.8852 112.176 15.8951 112.094 14.3474C111.992 12.3902 108.001 6.86239 110.979 5.59473C112.289 5.03717 114.626 6.52093 115.882 7.01098C118.34 7.97006 120.829 8.78799 123.37 9.49327C122.152 7.06753 119.831 2.21166 124.194 3.51132C127.593 4.52388 130.76 7.12714 134.175 8.35185C133.045 6.49945 128.526 0.75946 132.61 0.4386C133.88 0.338659 137.578 2.72232 138.946 3.23079C143.044 4.754 147.23 5.7385 151.532 6.51391C166.162 9.15049 183.27 8.39875 196.805 15.0592C207.24 20.1939 217.544 28.1611 223.572 38.3063C229.382 48.0851 231.555 58.787 232.771 69.9926C233.664 78.2162 233.736 86.7168 233.319 94.9702C233.183 97.6743 232.879 110.139 228.95 106.364C226.993 104.483 227.007 96.8884 226.514 94.3175C225.533 89.2026 224.589 84.0649 222.953 79.1135C220.071 70.388 216.671 66.3194 209.491 60.3098C204.883 56.4538 201.647 51.242 197.237 47.3517C195.256 45.6045 196.768 45.7865 193.583 46.0157C191.444 46.1696 189.295 46.2283 187.151 46.2844C182.192 46.4133 177.225 46.3804 172.264 46.3979C162.274 46.4339 152.33 46.575 142.35 46.0521C137.914 45.8198 133.467 45.694 129.043 45.2837C126.572 45.0544 122.188 43.4707 120.153 44.681C118.292 45.7882 116.359 49.4036 115.022 50.8843C111.864 54.3835 108.099 57.056 104.406 59.9254C96.7052 65.9082 92.8174 68.1968 90.4787 77.5464C88.1487 86.8615 88.802 95.5034 85.9179 104.67C85.4106 106.282 84.0686 109.06 82.4142 106.57C82.1071 106.108 82.1866 103.565 82.1866 102.103C82.1866 96.1978 80.6913 91.7673 80.7099 85.8239C80.7834 67.7532 81.3677 44.1896 94.8847 30.3799Z" fill="white"/>
</mask>
<g mask="url(#mask5_117_354)">
<path d="M94.8847 30.3799C98.4902 26.6957 102.676 23.5686 106.748 20.4328C107.647 19.7415 108.56 19.0669 109.438 18.3494C109.638 18.1863 111.683 16.7214 111.928 16.1823C112.517 14.8852 112.176 15.8951 112.094 14.3474C111.992 12.3902 108.001 6.86239 110.979 5.59473C112.289 5.03717 114.626 6.52093 115.882 7.01098C118.34 7.97006 120.829 8.78799 123.37 9.49327C122.152 7.06753 119.831 2.21166 124.194 3.51132C127.593 4.52388 130.76 7.12714 134.175 8.35185C133.045 6.49945 128.526 0.75946 132.61 0.4386C133.88 0.338659 137.578 2.72232 138.946 3.23079C143.044 4.754 147.23 5.7385 151.532 6.51391C166.162 9.15049 183.27 8.39875 196.805 15.0592C207.24 20.1939 217.544 28.1611 223.572 38.3063C229.382 48.0851 231.555 58.787 232.771 69.9926C233.664 78.2162 233.736 86.7168 233.319 94.9702C233.183 97.6743 232.879 110.139 228.95 106.364C226.993 104.483 227.007 96.8884 226.514 94.3175C225.533 89.2026 224.589 84.0649 222.953 79.1135C220.071 70.388 216.671 66.3194 209.491 60.3098C204.883 56.4538 201.647 51.242 197.237 47.3517C195.256 45.6045 196.768 45.7865 193.583 46.0157C191.444 46.1696 189.295 46.2283 187.151 46.2844C182.192 46.4133 177.225 46.3804 172.264 46.3979C162.274 46.4339 152.33 46.575 142.35 46.0521C137.914 45.8198 133.467 45.694 129.043 45.2837C126.572 45.0544 122.188 43.4707 120.153 44.681C118.292 45.7882 116.359 49.4036 115.022 50.8843C111.864 54.3835 108.099 57.056 104.406 59.9254C96.7052 65.9082 92.8174 68.1968 90.4787 77.5464C88.1487 86.8615 88.802 95.5034 85.9179 104.67C85.4106 106.282 84.0686 109.06 82.4142 106.57C82.1071 106.108 82.1866 103.565 82.1866 102.103C82.1866 96.1978 80.6913 91.7673 80.7099 85.8239C80.7834 67.7532 81.3677 44.1896 94.8847 30.3799Z" fill="#1F3140"/>
<path d="M-18.1552 -21.7742H328.936V344.622H-18.1552V-21.7742Z" fill="#301E1B"/>
</g>
</g>
</g>
<path d="M141.222 176.435C142.198 176.162 143.391 176.356 144.02 177.113C144.863 177.97 145.33 184.021 158.994 183.408C164.112 182.774 170.153 180.845 172.036 176.404C172.385 175.741 172.274 174.97 172.654 174.317C173.294 173.018 175.347 172.611 176.556 173.431C177.234 173.825 177.72 174.486 177.795 175.227C178.517 181.674 171.067 186.702 161.421 188.165C150.29 189.796 139.962 186.357 139.233 179.226C139.052 178.037 139.964 176.798 141.222 176.435Z" fill="#4D4D4D"/>
<path d="M237.14 97.6786C236.716 96.7814 228.139 95.4968 216.973 94.4448C207.528 93.5476 192.373 94.154 186.395 94.9807C183.959 95.3285 179.488 96.1749 175.106 97.3742C170.159 98.733 165.307 100.448 163.285 100.89C161.332 101.315 159.795 101.458 158.206 101.421V101.404C158.082 101.411 157.961 101.408 157.838 101.412C157.716 101.408 157.597 101.411 157.473 101.404V101.421C155.877 101.458 154.342 101.315 152.399 100.89C150.368 100.448 145.524 98.7331 140.563 97.3742C136.189 96.1749 131.719 95.3285 129.274 94.9807C123.312 94.1528 108.148 93.5476 98.7118 94.4448C87.5218 95.498 78.9652 96.7814 78.5321 97.6786C78.2264 98.3283 77.5495 106.673 78.4517 107.572C79.344 108.484 82.5035 110.256 83.2721 113.214C84.0381 116.177 87.1334 137.438 94.0626 143.246C105.451 152.829 143.733 153.253 150.342 118.364C151.249 113.6 152.44 110.813 154.499 110.041C155.334 109.723 156.575 109.485 157.842 109.475C159.109 109.484 160.337 109.724 161.189 110.041C163.244 110.813 164.434 113.6 165.346 118.364C171.942 153.252 210.22 152.83 221.629 143.246C228.541 137.44 231.639 116.178 232.411 113.214C233.183 110.256 236.342 108.484 237.226 107.572C238.124 106.675 237.457 98.3284 237.142 97.6786H237.14ZM144.332 121.491C138.365 148.857 109.532 145.663 102.559 143.509C99.4986 142.569 90.5349 139.013 89.0931 116.774C88.0919 101.305 95.3328 100.374 105.587 99.052C113.915 97.984 121.307 98.4456 126.324 99.0941C131.336 99.7327 143.015 102.225 144.172 106.471C145.328 110.714 145.636 115.518 144.332 121.491ZM226.59 116.774C225.137 139.016 216.185 142.569 213.119 143.509C206.155 145.663 177.3 148.854 171.35 121.491C170.053 115.519 170.359 110.714 171.514 106.473C172.672 102.227 184.351 99.7341 189.363 99.0957C194.36 98.446 201.765 97.9856 210.103 99.0536C220.349 100.374 227.595 101.305 226.589 116.775L226.59 116.774Z" fill="#0B1D5A"/>
<path d="M170.478 303.044C169.531 303.044 168.623 303.21 167.773 303.502L167.392 302.357C167.301 302.084 167.006 301.935 166.732 302.027C166.459 302.118 166.311 302.414 166.402 302.687L166.808 303.905C166.377 304.117 165.968 304.364 165.583 304.644L164.657 303.719C164.453 303.515 164.123 303.515 163.919 303.719C163.715 303.922 163.715 304.252 163.919 304.456L164.776 305.312C164.377 305.687 164.015 306.098 163.696 306.543L162.491 305.74C162.25 305.58 161.927 305.645 161.767 305.885C161.608 306.124 161.672 306.449 161.912 306.609L163.135 307.424C162.909 307.842 162.723 308.283 162.57 308.739L161.335 308.292C161.063 308.194 160.765 308.334 160.667 308.606C160.569 308.877 160.71 309.176 160.98 309.274L162.295 309.748C162.209 310.176 162.164 310.618 162.147 311.066C160.926 310.596 159.75 310.423 159.265 310.371C159.179 310.356 159.09 310.348 159 310.348C158.91 310.348 158.821 310.356 158.735 310.371C158.25 310.423 157.074 310.596 155.853 311.066C155.836 310.626 155.792 310.193 155.709 309.773L157.09 309.274C157.361 309.176 157.501 308.877 157.403 308.606C157.306 308.335 157.007 308.194 156.736 308.292L155.438 308.761C155.288 308.31 155.104 307.874 154.881 307.46L156.159 306.609C156.399 306.449 156.463 306.124 156.304 305.885C156.143 305.645 155.82 305.58 155.58 305.74L154.328 306.575C154.013 306.131 153.655 305.72 153.261 305.346L154.151 304.456C154.355 304.252 154.355 303.922 154.151 303.719C153.947 303.515 153.617 303.515 153.414 303.719L152.457 304.675C152.079 304.395 151.677 304.148 151.253 303.935L151.669 302.687C151.76 302.414 151.612 302.119 151.339 302.027C151.064 301.935 150.77 302.084 150.679 302.357L150.29 303.526C149.422 303.219 148.493 303.044 147.522 303.044C147.234 303.044 147 303.277 147 303.566C147 303.854 147.234 304.088 147.522 304.088C151.55 304.088 154.826 307.364 154.826 311.392C154.826 311.439 154.841 311.481 154.853 311.524C153.868 312.073 153.155 312.976 152.846 314.082C152.522 315.242 152.691 316.5 153.311 317.533L155.393 321.003C155.417 321.86 155.465 325.292 154.756 326.796C154.446 327.453 154.327 328.094 154.402 328.701C154.768 331.627 156.457 333.305 159.038 333.305C161.619 333.305 163.309 331.627 163.673 328.701C163.749 328.094 163.63 327.453 163.321 326.796C162.57 325.206 162.667 321.464 162.687 320.869L164.689 317.533C165.309 316.5 165.478 315.242 165.154 314.082C164.845 312.976 164.132 312.073 163.147 311.524C163.159 311.481 163.174 311.439 163.174 311.392C163.174 307.364 166.45 304.088 170.478 304.088C170.766 304.088 171 303.854 171 303.566C171 303.277 170.766 303.044 170.478 303.044ZM156.554 316.736C156.519 316.778 156.481 316.817 156.448 316.861C156.345 316.995 156.249 317.136 156.166 317.288C156.048 317.503 155.948 317.734 155.857 317.973C155.842 318.012 155.827 318.049 155.812 318.089C155.728 318.324 155.657 318.57 155.598 318.826C155.588 318.867 155.579 318.91 155.571 318.952C155.554 319.03 155.534 319.106 155.52 319.187L154.206 316.996C153.732 316.208 153.604 315.248 153.851 314.363C154.091 313.504 154.65 312.806 155.424 312.397C156.099 312.041 156.829 311.808 157.456 311.656C157.442 311.74 157.435 311.826 157.435 311.914V316.004C157.402 316.022 157.374 316.045 157.342 316.064C157.288 316.096 157.236 316.131 157.184 316.167C157.095 316.228 157.01 316.293 156.928 316.363C156.88 316.403 156.832 316.443 156.787 316.486C156.704 316.564 156.628 316.649 156.554 316.736ZM161.087 329.376C161.087 330.104 160.495 330.696 159.766 330.696H158.233C157.505 330.696 156.913 330.104 156.913 329.376V327.842C156.913 327.114 157.505 326.522 158.233 326.522H159.766C160.495 326.522 161.087 327.114 161.087 327.842V329.376ZM164.149 314.363C164.396 315.248 164.267 316.208 163.794 316.996L162.537 319.091C162.528 319.044 162.516 319.001 162.507 318.956C162.495 318.902 162.482 318.849 162.47 318.796C162.412 318.547 162.343 318.306 162.261 318.078C162.249 318.045 162.235 318.013 162.222 317.98C162.13 317.738 162.029 317.506 161.91 317.288C161.823 317.128 161.722 316.981 161.614 316.841C161.578 316.796 161.539 316.755 161.501 316.713C161.423 316.622 161.343 316.534 161.255 316.454C161.207 316.409 161.156 316.368 161.105 316.326C161.019 316.256 160.929 316.19 160.836 316.129C160.78 316.093 160.724 316.057 160.665 316.024C160.631 316.004 160.6 315.98 160.565 315.962V311.914C160.565 311.825 160.558 311.739 160.544 311.656C161.169 311.807 161.899 312.04 162.576 312.397C163.35 312.806 163.909 313.504 164.149 314.363Z" fill="#F2F1E8"/>
<path d="M159.959 323.957H158.043C157.852 323.957 157.696 324.113 157.696 324.304V326.22C157.696 326.411 157.852 326.566 158.043 326.566H159.959C160.149 326.566 160.305 326.411 160.305 326.22V324.304C160.305 324.113 160.149 323.957 159.959 323.957Z" fill="#F2F1E8"/>
<mask id="mask6_117_354" style="mask-type:alpha" maskUnits="userSpaceOnUse" x="84" y="121" width="148" height="110">
<path d="M86.9323 121C87.1779 121.103 87.3985 121.247 87.6192 121.391C92.4614 139.609 94.3377 158.308 98.6033 176.625C99.0424 178.32 99.0004 180.645 99.9482 180.995C103.398 182.132 109.757 172.352 118.61 167.126C126.1 162.688 134.866 159.968 143.836 159.239C148.418 158.803 153.624 159.245 157.719 161.234C157.968 161.395 158.235 161.222 158.468 161.124C167.477 156.658 185.501 159.982 197.698 167.351C205.885 172.319 210.984 180.15 214.972 181.03C216.634 181.366 216.691 180.127 216.981 178.544C217.129 177.368 217.434 176.214 217.688 175.053C221.712 157.24 223.608 139.087 228.316 121.391C228.534 121.249 228.755 121.105 229.002 121C229.036 121.041 229.103 121.123 229.137 121.165C230.052 125.122 230.792 137.1 231.031 141.143C231.06 143.386 232.091 152.344 231.882 161.122C231.812 163.266 230.713 181.189 226.659 192.333C219.668 211.417 205.431 214.881 188.05 220.75C177.222 224.447 177.105 225.198 172.685 226.67C171.492 227.019 170.474 228.608 164.343 229.604C156.859 230.727 148.899 229.713 144.985 227.354C144.319 226.958 143.525 226.803 142.8 226.519C140.758 225.787 138.787 224.916 136.815 224.052C127.631 220.176 117.411 217.915 108.681 213.661C90.3098 204.734 86.8417 189.229 84.7762 169.679C84.2448 165.091 83.5859 159.126 84.3413 149.703C84.4168 148.284 85.306 134.168 85.8906 127.826C86.1213 125.599 86.3056 123.361 86.7969 121.164C86.8307 121.123 86.8983 121.041 86.9323 121ZM158.518 173.506C150.844 176.61 145.495 173.884 139.842 175.168C135.665 176.092 133.2 179.539 131.856 183.18C130.329 187.471 130.152 192.791 133.3 196.295C139.149 203.108 149.31 191.837 170.528 196.739C174.543 197.603 178.913 199.154 181.698 197.909C184.25 196.808 186.946 193.189 186.316 187.335C185.896 183.567 184.037 179.009 180.771 176.682C175.108 172.526 166.917 177.148 158.932 173.588C158.798 173.552 158.658 173.444 158.518 173.506Z" fill="#532A0D"/>
</mask>
<g mask="url(#mask6_117_354)">
<ellipse cx="158" cy="143.5" rx="74" ry="86.5" fill="#532A0D"/>
</g>
</g>
<defs>
<clipPath id="clip0_117_354">
<rect width="315" height="344.032" fill="white"/>
</clipPath>
</defs>
</svg>
